<svg width="208" height="24" viewBox="0 0 208 24" fill="none" xmlns="http://www.w3.org/2000/svg">
<path d="M12.01 11.81L17.65 21.53C17.85 21.85 17.85 22.18 17.65 22.52C17.45 22.84 17.16 23 16.78 23H13.3C12.16 23 11.33 22.5 10.81 21.5L6.25 12.83C6.25 12.81 6.24 12.8 6.22 12.8C6.2 12.8 6.19 12.81 6.19 12.83V21.29C6.19 21.75 6.02 22.15 5.68 22.49C5.34 22.83 4.94 23 4.48 23H1.9C1.44 23 1.04 22.83 0.7 22.49C0.36 22.15 0.19 21.75 0.19 21.29V2.81C0.19 2.35 0.36 1.95 0.7 1.61C1.04 1.27 1.44 1.1 1.9 1.1H4.48C4.94 1.1 5.34 1.27 5.68 1.61C6.02 1.95 6.19 2.35 6.19 2.81V10.37C6.19 10.39 6.2 10.4 6.22 10.4C6.24 10.4 6.25 10.39 6.25 10.37L10.48 2.6C11.02 1.6 11.86 1.1 13 1.1H16.48C16.86 1.1 17.14 1.27 17.32 1.61C17.52 1.93 17.52 2.25 17.32 2.57L12.01 11.39C11.91 11.51 11.91 11.65 12.01 11.81ZM25.2292 7.4C25.6892 7.4 26.0892 7.57 26.4292 7.91C26.7692 8.25 26.9392 8.65 26.9392 9.11V21.29C26.9392 21.75 26.7692 22.15 26.4292 22.49C26.0892 22.83 25.6892 23 25.2292 23H22.6492C22.1892 23 21.7892 22.83 21.4492 22.49C21.1092 22.15 20.9392 21.75 20.9392 21.29V9.11C20.9392 8.65 21.1092 8.25 21.4492 7.91C21.7892 7.57 22.1892 7.4 22.6492 7.4H25.2292ZM25.2292 0.499998C25.6892 0.499998 26.0892 0.669998 26.4292 1.01C26.7692 1.35 26.9392 1.75 26.9392 2.21V2.99C26.9392 3.45 26.7692 3.85 26.4292 4.19C26.0892 4.53 25.6892 4.7 25.2292 4.7H22.6492C22.1892 4.7 21.7892 4.53 21.4492 4.19C21.1092 3.85 20.9392 3.45 20.9392 2.99V2.21C20.9392 1.75 21.1092 1.35 21.4492 1.01C21.7892 0.669998 22.1892 0.499998 22.6492 0.499998H25.2292ZM36.9355 9.35C38.1755 7.85 39.7055 7.1 41.5255 7.1C43.3455 7.1 44.6455 7.62 45.4255 8.66C46.2255 9.7 46.6255 11.48 46.6255 14V21.29C46.6255 21.75 46.4555 22.15 46.1155 22.49C45.7755 22.83 45.3755 23 44.9155 23H42.7855C42.3255 23 41.9255 22.83 41.5855 22.49C41.2455 22.15 41.0755 21.75 41.0755 21.29V14C41.0755 13.08 40.9455 12.45 40.6855 12.11C40.4255 11.77 39.9555 11.6 39.2755 11.6C38.7155 11.6 38.1955 11.82 37.7155 12.26C37.2555 12.7 37.0255 13.18 37.0255 13.7V21.29C37.0255 21.75 36.8555 22.15 36.5155 22.49C36.1755 22.83 35.7755 23 35.3155 23H33.0355C32.5755 23 32.1755 22.83 31.8355 22.49C31.4955 22.15 31.3255 21.75 31.3255 21.29V9.11C31.3255 8.65 31.4955 8.25 31.8355 7.91C32.1755 7.57 32.5755 7.4 33.0355 7.4H35.0755C35.5555 7.4 35.9655 7.57 36.3055 7.91C36.6455 8.23 36.8255 8.63 36.8455 9.11V9.35C36.8455 9.37 36.8555 9.38 36.8755 9.38C36.9155 9.38 36.9355 9.37 36.9355 9.35ZM60.0013 16.85V13.55C60.0013 12.97 59.7413 12.45 59.2213 11.99C58.7213 11.53 58.1313 11.3 57.4513 11.3C55.7513 11.3 54.9013 12.6 54.9013 15.2C54.9013 16.5 55.1313 17.48 55.5913 18.14C56.0513 18.78 56.6713 19.1 57.4513 19.1C58.1313 19.1 58.7213 18.87 59.2213 18.41C59.7413 17.95 60.0013 17.43 60.0013 16.85ZM63.8413 0.499998C64.3013 0.499998 64.7013 0.669998 65.0413 1.01C65.3813 1.35 65.5513 1.75 65.5513 2.21V21.29C65.5513 21.75 65.3813 22.15 65.0413 22.49C64.7013 22.83 64.3013 23 63.8413 23H61.9513C61.4713 23 61.0613 22.84 60.7213 22.52C60.3813 22.18 60.2013 21.77 60.1813 21.29V21.05C60.1813 21.03 60.1713 21.02 60.1513 21.02C60.1313 21.02 60.1113 21.03 60.0913 21.05C58.8713 22.55 57.2913 23.3 55.3513 23.3C53.6113 23.3 52.1713 22.59 51.0313 21.17C49.9113 19.75 49.3513 17.76 49.3513 15.2C49.3513 12.58 49.8913 10.58 50.9713 9.2C52.0513 7.8 53.5113 7.1 55.3513 7.1C56.9513 7.1 58.4213 7.69 59.7613 8.87C59.7813 8.89 59.8013 8.9 59.8213 8.9C59.8413 8.9 59.8513 8.89 59.8513 8.87V2.21C59.8513 1.75 60.0213 1.35 60.3613 1.01C60.7013 0.669998 61.1013 0.499998 61.5613 0.499998H63.8413ZM78.5001 13.7C78.6801 13.7 78.7701 13.61 78.7701 13.43C78.7501 12.51 78.5501 11.85 78.1701 11.45C77.8101 11.05 77.2601 10.85 76.5201 10.85C75.7401 10.85 75.1501 11.05 74.7501 11.45C74.3701 11.83 74.1301 12.5 74.0301 13.46C74.0301 13.62 74.1101 13.7 74.2701 13.7H78.5001ZM76.3701 7.1C81.4501 7.1 84.0001 9.78 84.0201 15.14C84.0201 15.62 83.8401 16.03 83.4801 16.37C83.1201 16.69 82.6901 16.85 82.1901 16.85H74.3301C74.1501 16.85 74.0801 16.94 74.1201 17.12C74.3001 17.96 74.6901 18.55 75.2901 18.89C75.9101 19.23 76.8701 19.4 78.1701 19.4C78.9901 19.4 79.9901 19.28 81.1701 19.04C81.5901 18.94 81.9701 19.03 82.3101 19.31C82.6501 19.57 82.8201 19.92 82.8201 20.36V20.84C82.8201 21.34 82.6601 21.8 82.3401 22.22C82.0401 22.62 81.6501 22.86 81.1701 22.94C79.9501 23.18 78.6501 23.3 77.2701 23.3C74.4301 23.3 72.2401 22.61 70.7001 21.23C69.1801 19.83 68.4201 17.82 68.4201 15.2C68.4201 12.6 69.1001 10.6 70.4601 9.2C71.8201 7.8 73.7901 7.1 76.3701 7.1ZM97.7917 7.46C98.2517 7.4 98.6517 7.54 98.9917 7.88C99.3317 8.22 99.5017 8.63 99.5017 9.11V9.89C99.5017 10.35 99.3417 10.75 99.0217 11.09C98.7017 11.41 98.3017 11.6 97.8217 11.66C96.2817 11.86 95.0517 12.44 94.1317 13.4C93.2117 14.34 92.7517 15.49 92.7517 16.85V21.29C92.7517 21.75 92.5817 22.15 92.2417 22.49C91.9017 22.83 91.5017 23 91.0417 23H88.6117C88.1517 23 87.7517 22.83 87.4117 22.49C87.0717 22.15 86.9017 21.75 86.9017 21.29V9.11C86.9017 8.65 87.0717 8.25 87.4117 7.91C87.7517 7.57 88.1517 7.4 88.6117 7.4H90.8917C91.3517 7.4 91.7517 7.57 92.0917 7.91C92.4317 8.25 92.6017 8.65 92.6017 9.11V10.37C92.6017 10.39 92.6117 10.4 92.6317 10.4C92.6517 10.4 92.6717 10.39 92.6917 10.37C93.9517 8.71 95.6517 7.74 97.7917 7.46Z" fill="#FF7162"/>
<path d="M118.833 9.5C119.293 9.5 119.693 9.67 120.033 10.01C120.373 10.35 120.543 10.75 120.543 11.21V20.39C120.543 20.91 120.393 21.38 120.093 21.8C119.813 22.2 119.433 22.46 118.953 22.58C117.093 23.06 115.123 23.3 113.043 23.3C109.543 23.3 106.763 22.32 104.703 20.36C102.663 18.38 101.643 15.61 101.643 12.05C101.643 8.49 102.633 5.73 104.613 3.77C106.593 1.79 109.403 0.8 113.043 0.8C114.523 0.8 116.063 0.929999 117.663 1.19C118.143 1.27 118.543 1.51 118.863 1.91C119.183 2.31 119.343 2.76 119.343 3.26V4.73C119.343 5.15 119.173 5.49 118.833 5.75C118.513 6.01 118.143 6.1 117.723 6.02C116.323 5.7 115.013 5.54 113.793 5.54C111.713 5.54 110.183 6.07 109.203 7.13C108.223 8.17 107.733 9.81 107.733 12.05C107.733 14.31 108.203 15.96 109.143 17C110.083 18.04 111.483 18.56 113.343 18.56C113.723 18.56 114.133 18.51 114.573 18.41C114.753 18.37 114.843 18.26 114.843 18.08V14.27C114.843 14.09 114.753 14 114.573 14H112.653C112.193 14 111.793 13.83 111.453 13.49C111.113 13.15 110.943 12.75 110.943 12.29V11.21C110.943 10.75 111.113 10.35 111.453 10.01C111.793 9.67 112.193 9.5 112.653 9.5H118.833ZM133.01 16.7V16.52C133.01 16.34 132.92 16.25 132.74 16.25H131.81C129.81 16.25 128.81 16.85 128.81 18.05C128.81 18.95 129.31 19.4 130.31 19.4C131.09 19.4 131.73 19.16 132.23 18.68C132.75 18.18 133.01 17.52 133.01 16.7ZM131.21 7.1C133.85 7.1 135.76 7.58 136.94 8.54C138.12 9.5 138.71 11.02 138.71 13.1V21.29C138.71 21.75 138.54 22.15 138.2 22.49C137.86 22.83 137.46 23 137 23H135.11C134.63 23 134.22 22.84 133.88 22.52C133.54 22.18 133.36 21.77 133.34 21.29V21.05C133.34 21.03 133.33 21.02 133.31 21.02C133.29 21.02 133.27 21.03 133.25 21.05C131.97 22.55 130.39 23.3 128.51 23.3C127.11 23.3 125.96 22.86 125.06 21.98C124.16 21.08 123.71 19.92 123.71 18.5C123.71 14.9 126.41 13.1 131.81 13.1H132.74C132.92 13.1 133.01 13.01 133.01 12.83V12.8C133.01 11.6 132.31 11 130.91 11C129.71 11 128.16 11.18 126.26 11.54C125.84 11.62 125.46 11.53 125.12 11.27C124.78 10.99 124.61 10.63 124.61 10.19V9.71C124.61 9.21 124.76 8.76 125.06 8.36C125.38 7.96 125.78 7.72 126.26 7.64C128.24 7.28 129.89 7.1 131.21 7.1ZM153.221 7.46C153.681 7.4 154.081 7.54 154.421 7.88C154.761 8.22 154.931 8.63 154.931 9.11V9.89C154.931 10.35 154.771 10.75 154.451 11.09C154.131 11.41 153.731 11.6 153.251 11.66C151.711 11.86 150.481 12.44 149.561 13.4C148.641 14.34 148.181 15.49 148.181 16.85V21.29C148.181 21.75 148.011 22.15 147.671 22.49C147.331 22.83 146.931 23 146.471 23H144.041C143.581 23 143.181 22.83 142.841 22.49C142.501 22.15 142.331 21.75 142.331 21.29V9.11C142.331 8.65 142.501 8.25 142.841 7.91C143.181 7.57 143.581 7.4 144.041 7.4H146.321C146.781 7.4 147.181 7.57 147.521 7.91C147.861 8.25 148.031 8.65 148.031 9.11V10.37C148.031 10.39 148.041 10.4 148.061 10.4C148.081 10.4 148.101 10.39 148.121 10.37C149.381 8.71 151.081 7.74 153.221 7.46ZM169.162 8C169.622 8 170.022 8.17 170.362 8.51C170.702 8.85 170.872 9.25 170.872 9.71V10.19C170.872 10.65 170.702 11.05 170.362 11.39C170.022 11.73 169.622 11.9 169.162 11.9H166.492C166.312 11.9 166.222 11.99 166.222 12.17V16.4C166.222 17.6 166.322 18.35 166.522 18.65C166.722 18.95 167.172 19.1 167.872 19.1C168.152 19.1 168.492 19.07 168.892 19.01C169.312 18.95 169.692 19.06 170.032 19.34C170.392 19.6 170.572 19.94 170.572 20.36V21.14C170.572 21.64 170.412 22.09 170.092 22.49C169.792 22.87 169.402 23.09 168.922 23.15C168.222 23.25 167.372 23.3 166.372 23.3C164.232 23.3 162.722 22.84 161.842 21.92C160.962 21 160.522 19.36 160.522 17V12.17C160.522 11.99 160.432 11.9 160.252 11.9H159.082C158.622 11.9 158.222 11.73 157.882 11.39C157.542 11.05 157.372 10.65 157.372 10.19V9.71C157.372 9.25 157.542 8.85 157.882 8.51C158.222 8.17 158.622 8 159.082 8H160.252C160.432 8 160.522 7.91 160.522 7.73V4.01C160.522 3.55 160.692 3.15 161.032 2.81C161.372 2.47 161.772 2.3 162.232 2.3H164.512C164.972 2.3 165.372 2.47 165.712 2.81C166.052 3.15 166.222 3.55 166.222 4.01V7.73C166.222 7.91 166.312 8 166.492 8H169.162ZM183.676 13.7C183.856 13.7 183.946 13.61 183.946 13.43C183.926 12.51 183.726 11.85 183.346 11.45C182.986 11.05 182.436 10.85 181.696 10.85C180.916 10.85 180.326 11.05 179.926 11.45C179.546 11.83 179.306 12.5 179.206 13.46C179.206 13.62 179.286 13.7 179.446 13.7H183.676ZM181.546 7.1C186.626 7.1 189.176 9.78 189.196 15.14C189.196 15.62 189.016 16.03 188.656 16.37C188.296 16.69 187.866 16.85 187.366 16.85H179.506C179.326 16.85 179.256 16.94 179.296 17.12C179.476 17.96 179.866 18.55 180.466 18.89C181.086 19.23 182.046 19.4 183.346 19.4C184.166 19.4 185.166 19.28 186.346 19.04C186.766 18.94 187.146 19.03 187.486 19.31C187.826 19.57 187.996 19.92 187.996 20.36V20.84C187.996 21.34 187.836 21.8 187.516 22.22C187.216 22.62 186.826 22.86 186.346 22.94C185.126 23.18 183.826 23.3 182.446 23.3C179.606 23.3 177.416 22.61 175.876 21.23C174.356 19.83 173.596 17.82 173.596 15.2C173.596 12.6 174.276 10.6 175.636 9.2C176.996 7.8 178.966 7.1 181.546 7.1ZM197.688 9.35C198.928 7.85 200.458 7.1 202.278 7.1C204.098 7.1 205.398 7.62 206.178 8.66C206.978 9.7 207.378 11.48 207.378 14V21.29C207.378 21.75 207.208 22.15 206.868 22.49C206.528 22.83 206.128 23 205.668 23H203.538C203.078 23 202.678 22.83 202.338 22.49C201.998 22.15 201.828 21.75 201.828 21.29V14C201.828 13.08 201.698 12.45 201.438 12.11C201.178 11.77 200.708 11.6 200.028 11.6C199.468 11.6 198.948 11.82 198.468 12.26C198.008 12.7 197.778 13.18 197.778 13.7V21.29C197.778 21.75 197.608 22.15 197.268 22.49C196.928 22.83 196.528 23 196.068 23H193.788C193.328 23 192.928 22.83 192.588 22.49C192.248 22.15 192.078 21.75 192.078 21.29V9.11C192.078 8.65 192.248 8.25 192.588 7.91C192.928 7.57 193.328 7.4 193.788 7.4H195.828C196.308 7.4 196.718 7.57 197.058 7.91C197.398 8.23 197.578 8.63 197.598 9.11V9.35C197.598 9.37 197.608 9.38 197.628 9.38C197.668 9.38 197.688 9.37 197.688 9.35Z" fill="white"/>
</svg>
