<svg xmlns="http://www.w3.org/2000/svg" xmlns:xlink="http://www.w3.org/1999/xlink" width="200" zoomAndPan="magnify" viewBox="0 0 150 30.000001" height="40" preserveAspectRatio="xMidYMid meet" version="1.0"><defs><g/></defs><g fill="#ff655a" fill-opacity="1"><g transform="translate(2.592298, 14.936392)"><g><path d="M 14.96875 -0.984375 C 14.988281 -0.722656 14.914062 -0.5 14.75 -0.3125 C 14.59375 -0.132812 14.390625 -0.03125 14.140625 0 L 14.078125 0 C 13.835938 0 13.632812 -0.0703125 13.46875 -0.21875 C 13.300781 -0.375 13.207031 -0.566406 13.1875 -0.796875 C 13.1875 -0.828125 13.15625 -1.242188 13.09375 -2.046875 C 13.03125 -2.847656 12.960938 -3.878906 12.890625 -5.140625 L 3.40625 -3.859375 L 3.40625 -0.890625 C 3.40625 -0.640625 3.316406 -0.425781 3.140625 -0.25 C 2.972656 -0.0820312 2.765625 0 2.515625 0 C 2.265625 0 2.050781 -0.0820312 1.875 -0.25 C 1.707031 -0.425781 1.625 -0.640625 1.625 -0.890625 L 1.625 -3.671875 C 1.445312 -3.710938 1.296875 -3.800781 1.171875 -3.9375 C 1.046875 -4.070312 0.96875 -4.238281 0.9375 -4.4375 C 0.90625 -4.65625 0.957031 -4.859375 1.09375 -5.046875 C 1.226562 -5.234375 1.398438 -5.351562 1.609375 -5.40625 C 1.609375 -6.175781 1.597656 -6.976562 1.578125 -7.8125 C 1.566406 -8.65625 1.546875 -9.488281 1.515625 -10.3125 C 1.492188 -11.144531 1.472656 -11.929688 1.453125 -12.671875 C 1.429688 -13.410156 1.398438 -14.0625 1.359375 -14.625 C 1.347656 -14.875 1.421875 -15.085938 1.578125 -15.265625 C 1.742188 -15.453125 1.953125 -15.5625 2.203125 -15.59375 C 2.453125 -15.601562 2.664062 -15.523438 2.84375 -15.359375 C 3.03125 -15.203125 3.128906 -14.992188 3.140625 -14.734375 C 3.179688 -14.171875 3.210938 -13.519531 3.234375 -12.78125 C 3.253906 -12.050781 3.273438 -11.285156 3.296875 -10.484375 C 3.328125 -9.679688 3.347656 -8.863281 3.359375 -8.03125 C 3.378906 -7.207031 3.390625 -6.414062 3.390625 -5.65625 L 12.828125 -6.921875 C 12.796875 -8.140625 12.78125 -9.421875 12.78125 -10.765625 C 12.78125 -12.117188 12.828125 -13.453125 12.921875 -14.765625 C 12.929688 -15.015625 13.023438 -15.21875 13.203125 -15.375 C 13.378906 -15.53125 13.59375 -15.601562 13.84375 -15.59375 C 14.101562 -15.5625 14.3125 -15.453125 14.46875 -15.265625 C 14.632812 -15.085938 14.703125 -14.875 14.671875 -14.625 C 14.585938 -13.226562 14.546875 -11.804688 14.546875 -10.359375 C 14.554688 -8.910156 14.582031 -7.554688 14.625 -6.296875 L 14.625 -6.28125 C 14.65625 -6.207031 14.65625 -6.144531 14.625 -6.09375 C 14.65625 -5.351562 14.6875 -4.675781 14.71875 -4.0625 C 14.757812 -3.445312 14.796875 -2.910156 14.828125 -2.453125 C 14.867188 -1.992188 14.898438 -1.632812 14.921875 -1.375 C 14.953125 -1.113281 14.96875 -0.984375 14.96875 -0.984375 Z M 14.96875 -0.984375 "/></g></g></g><g fill="#ff655a" fill-opacity="1"><g transform="translate(18.554015, 14.936392)"><g><path d="M 13.40625 -6.171875 C 13.507812 -5.472656 13.585938 -4.804688 13.640625 -4.171875 C 13.691406 -3.546875 13.726562 -2.988281 13.75 -2.5 C 13.769531 -2.019531 13.785156 -1.632812 13.796875 -1.34375 C 13.804688 -1.050781 13.8125 -0.898438 13.8125 -0.890625 C 13.8125 -0.640625 13.722656 -0.425781 13.546875 -0.25 C 13.378906 -0.0820312 13.171875 0 12.921875 0 C 12.660156 0 12.445312 -0.0820312 12.28125 -0.25 C 12.113281 -0.425781 12.03125 -0.640625 12.03125 -0.890625 C 12.03125 -0.898438 12.023438 -1.125 12.015625 -1.5625 C 12.003906 -2.007812 11.976562 -2.585938 11.9375 -3.296875 L 2.765625 -2.890625 C 2.765625 -2.597656 2.765625 -2.332031 2.765625 -2.09375 C 2.765625 -1.851562 2.769531 -1.648438 2.78125 -1.484375 C 2.800781 -1.296875 2.816406 -1.117188 2.828125 -0.953125 C 2.835938 -0.703125 2.757812 -0.488281 2.59375 -0.3125 C 2.4375 -0.132812 2.234375 -0.03125 1.984375 0 C 1.734375 0.03125 1.515625 -0.0351562 1.328125 -0.203125 C 1.148438 -0.367188 1.054688 -0.578125 1.046875 -0.828125 C 1.046875 -0.835938 1.035156 -0.984375 1.015625 -1.265625 C 0.992188 -1.546875 0.984375 -1.921875 0.984375 -2.390625 C 0.984375 -2.859375 0.988281 -3.394531 1 -4 C 1.019531 -4.613281 1.054688 -5.269531 1.109375 -5.96875 C 1.421875 -9.800781 2.285156 -12.492188 3.703125 -14.046875 C 4.585938 -15.023438 5.671875 -15.539062 6.953125 -15.59375 C 8.191406 -15.601562 9.289062 -15.15625 10.25 -14.25 C 11.769531 -12.75 12.820312 -10.054688 13.40625 -6.171875 Z M 11.75 -5.046875 L 11.640625 -5.921875 C 11.390625 -7.640625 11.039062 -9.09375 10.59375 -10.28125 C 10.15625 -11.46875 9.625 -12.367188 9 -12.984375 C 8.40625 -13.546875 7.734375 -13.820312 6.984375 -13.8125 C 6.234375 -13.789062 5.582031 -13.46875 5.03125 -12.84375 C 4.46875 -12.21875 4.003906 -11.316406 3.640625 -10.140625 C 3.273438 -8.960938 3.019531 -7.535156 2.875 -5.859375 L 2.8125 -4.671875 Z M 11.75 -5.046875 "/></g></g></g><g fill="#ff655a" fill-opacity="1"><g transform="translate(33.157769, 14.936392)"><g><path d="M 14.609375 -12.265625 C 14.785156 -11.523438 14.738281 -10.753906 14.46875 -9.953125 C 14.21875 -9.140625 13.753906 -8.359375 13.078125 -7.609375 C 12.398438 -6.859375 11.554688 -6.171875 10.546875 -5.546875 C 9.453125 -4.878906 8.222656 -4.335938 6.859375 -3.921875 C 6.085938 -3.691406 5.300781 -3.488281 4.5 -3.3125 L 4.5625 -0.90625 C 4.5625 -0.65625 4.476562 -0.441406 4.3125 -0.265625 C 4.15625 -0.0859375 3.953125 0 3.703125 0 L 3.671875 0 C 3.421875 0 3.207031 -0.078125 3.03125 -0.234375 C 2.863281 -0.398438 2.78125 -0.613281 2.78125 -0.875 L 2.734375 -3.03125 C 2.617188 -3.007812 2.5 -2.992188 2.375 -2.984375 C 2.25 -2.984375 2.117188 -2.96875 1.984375 -2.9375 L 1.890625 -2.9375 C 1.671875 -2.9375 1.476562 -3.015625 1.3125 -3.171875 C 1.144531 -3.328125 1.050781 -3.515625 1.03125 -3.734375 C 1 -3.992188 1.054688 -4.210938 1.203125 -4.390625 C 1.347656 -4.578125 1.546875 -4.6875 1.796875 -4.71875 C 1.953125 -4.738281 2.101562 -4.753906 2.25 -4.765625 C 2.394531 -4.773438 2.539062 -4.796875 2.6875 -4.828125 L 2.5 -12.15625 L 2.03125 -11.953125 C 1.800781 -11.835938 1.570312 -11.820312 1.34375 -11.90625 C 1.113281 -12 0.945312 -12.15625 0.84375 -12.375 C 0.738281 -12.613281 0.726562 -12.84375 0.8125 -13.0625 C 0.90625 -13.289062 1.066406 -13.457031 1.296875 -13.5625 L 2.453125 -14.078125 L 2.453125 -14.421875 C 2.429688 -14.679688 2.503906 -14.894531 2.671875 -15.0625 C 2.847656 -15.226562 3.0625 -15.320312 3.3125 -15.34375 L 3.34375 -15.34375 C 3.550781 -15.34375 3.726562 -15.28125 3.875 -15.15625 C 4.019531 -15.039062 4.125 -14.890625 4.1875 -14.703125 C 5.019531 -14.960938 5.8125 -15.164062 6.5625 -15.3125 C 7.3125 -15.46875 8.035156 -15.5625 8.734375 -15.59375 C 9.742188 -15.613281 10.644531 -15.503906 11.4375 -15.265625 C 12.226562 -15.035156 12.890625 -14.679688 13.421875 -14.203125 C 13.722656 -13.953125 13.972656 -13.660156 14.171875 -13.328125 C 14.367188 -12.992188 14.515625 -12.640625 14.609375 -12.265625 Z M 12.78125 -10.515625 C 12.84375 -10.671875 12.882812 -10.847656 12.90625 -11.046875 C 12.9375 -11.253906 12.9375 -11.460938 12.90625 -11.671875 C 12.882812 -11.878906 12.820312 -12.085938 12.71875 -12.296875 C 12.613281 -12.503906 12.457031 -12.703125 12.25 -12.890625 C 11.894531 -13.203125 11.421875 -13.4375 10.828125 -13.59375 C 10.234375 -13.757812 9.554688 -13.832031 8.796875 -13.8125 C 7.484375 -13.757812 5.976562 -13.4375 4.28125 -12.84375 L 4.453125 -5.140625 C 5.460938 -5.347656 6.398438 -5.613281 7.265625 -5.9375 C 8.140625 -6.269531 8.929688 -6.648438 9.640625 -7.078125 C 10.453125 -7.566406 11.128906 -8.101562 11.671875 -8.6875 C 12.210938 -9.28125 12.582031 -9.890625 12.78125 -10.515625 Z M 12.78125 -10.515625 "/></g></g></g><g fill="#ff655a" fill-opacity="1"><g transform="translate(48.206757, 14.936392)"><g><path d="M 14.609375 -12.265625 C 14.785156 -11.523438 14.738281 -10.753906 14.46875 -9.953125 C 14.21875 -9.140625 13.753906 -8.359375 13.078125 -7.609375 C 12.398438 -6.859375 11.554688 -6.171875 10.546875 -5.546875 C 9.453125 -4.878906 8.222656 -4.335938 6.859375 -3.921875 C 6.085938 -3.691406 5.300781 -3.488281 4.5 -3.3125 L 4.5625 -0.90625 C 4.5625 -0.65625 4.476562 -0.441406 4.3125 -0.265625 C 4.15625 -0.0859375 3.953125 0 3.703125 0 L 3.671875 0 C 3.421875 0 3.207031 -0.078125 3.03125 -0.234375 C 2.863281 -0.398438 2.78125 -0.613281 2.78125 -0.875 L 2.734375 -3.03125 C 2.617188 -3.007812 2.5 -2.992188 2.375 -2.984375 C 2.25 -2.984375 2.117188 -2.96875 1.984375 -2.9375 L 1.890625 -2.9375 C 1.671875 -2.9375 1.476562 -3.015625 1.3125 -3.171875 C 1.144531 -3.328125 1.050781 -3.515625 1.03125 -3.734375 C 1 -3.992188 1.054688 -4.210938 1.203125 -4.390625 C 1.347656 -4.578125 1.546875 -4.6875 1.796875 -4.71875 C 1.953125 -4.738281 2.101562 -4.753906 2.25 -4.765625 C 2.394531 -4.773438 2.539062 -4.796875 2.6875 -4.828125 L 2.5 -12.15625 L 2.03125 -11.953125 C 1.800781 -11.835938 1.570312 -11.820312 1.34375 -11.90625 C 1.113281 -12 0.945312 -12.15625 0.84375 -12.375 C 0.738281 -12.613281 0.726562 -12.84375 0.8125 -13.0625 C 0.90625 -13.289062 1.066406 -13.457031 1.296875 -13.5625 L 2.453125 -14.078125 L 2.453125 -14.421875 C 2.429688 -14.679688 2.503906 -14.894531 2.671875 -15.0625 C 2.847656 -15.226562 3.0625 -15.320312 3.3125 -15.34375 L 3.34375 -15.34375 C 3.550781 -15.34375 3.726562 -15.28125 3.875 -15.15625 C 4.019531 -15.039062 4.125 -14.890625 4.1875 -14.703125 C 5.019531 -14.960938 5.8125 -15.164062 6.5625 -15.3125 C 7.3125 -15.46875 8.035156 -15.5625 8.734375 -15.59375 C 9.742188 -15.613281 10.644531 -15.503906 11.4375 -15.265625 C 12.226562 -15.035156 12.890625 -14.679688 13.421875 -14.203125 C 13.722656 -13.953125 13.972656 -13.660156 14.171875 -13.328125 C 14.367188 -12.992188 14.515625 -12.640625 14.609375 -12.265625 Z M 12.78125 -10.515625 C 12.84375 -10.671875 12.882812 -10.847656 12.90625 -11.046875 C 12.9375 -11.253906 12.9375 -11.460938 12.90625 -11.671875 C 12.882812 -11.878906 12.820312 -12.085938 12.71875 -12.296875 C 12.613281 -12.503906 12.457031 -12.703125 12.25 -12.890625 C 11.894531 -13.203125 11.421875 -13.4375 10.828125 -13.59375 C 10.234375 -13.757812 9.554688 -13.832031 8.796875 -13.8125 C 7.484375 -13.757812 5.976562 -13.4375 4.28125 -12.84375 L 4.453125 -5.140625 C 5.460938 -5.347656 6.398438 -5.613281 7.265625 -5.9375 C 8.140625 -6.269531 8.929688 -6.648438 9.640625 -7.078125 C 10.453125 -7.566406 11.128906 -8.101562 11.671875 -8.6875 C 12.210938 -9.28125 12.582031 -9.890625 12.78125 -10.515625 Z M 12.78125 -10.515625 "/></g></g></g><g fill="#ff655a" fill-opacity="1"><g transform="translate(63.255745, 14.936392)"><g><path d="M 17.765625 -6.296875 C 18.171875 -3.484375 18.304688 -0.960938 18.171875 1.265625 C 17.992188 4.148438 17.351562 6.472656 16.25 8.234375 C 15.6875 9.171875 14.984375 9.96875 14.140625 10.625 C 13.304688 11.289062 12.351562 11.796875 11.28125 12.140625 C 10.300781 12.453125 9.300781 12.609375 8.28125 12.609375 C 7.8125 12.609375 7.34375 12.566406 6.875 12.484375 C 6.40625 12.410156 5.941406 12.304688 5.484375 12.171875 C 4.003906 11.703125 2.835938 10.929688 1.984375 9.859375 C 1.503906 9.285156 1.15625 8.644531 0.9375 7.9375 C 0.726562 7.226562 0.644531 6.484375 0.6875 5.703125 C 0.707031 5.453125 0.804688 5.25 0.984375 5.09375 C 1.160156 4.9375 1.375 4.863281 1.625 4.875 C 1.875 4.894531 2.082031 4.992188 2.25 5.171875 C 2.414062 5.347656 2.488281 5.5625 2.46875 5.8125 C 2.394531 6.90625 2.671875 7.859375 3.296875 8.671875 C 3.929688 9.492188 4.835938 10.09375 6.015625 10.46875 C 6.722656 10.6875 7.476562 10.796875 8.28125 10.796875 C 9.09375 10.796875 9.894531 10.671875 10.6875 10.421875 C 11.476562 10.179688 12.226562 9.804688 12.9375 9.296875 C 13.644531 8.785156 14.242188 8.117188 14.734375 7.296875 C 15.585938 5.898438 16.117188 4.078125 16.328125 1.828125 C 16.546875 -0.410156 16.441406 -3.023438 16.015625 -6.015625 C 15.921875 -6.609375 15.828125 -7.175781 15.734375 -7.71875 C 15.640625 -8.269531 15.539062 -8.804688 15.4375 -9.328125 C 15.382812 -9.054688 15.335938 -8.785156 15.296875 -8.515625 C 15.253906 -8.253906 15.203125 -7.988281 15.140625 -7.71875 C 14.710938 -5.632812 14.117188 -3.957031 13.359375 -2.6875 C 12.898438 -1.914062 12.359375 -1.300781 11.734375 -0.84375 C 11.003906 -0.3125 10.222656 -0.0351562 9.390625 -0.015625 C 8.785156 0.0234375 8.203125 -0.0703125 7.640625 -0.3125 C 7.117188 -0.550781 6.65625 -0.867188 6.25 -1.265625 C 4.832031 -2.734375 3.972656 -5.453125 3.671875 -9.421875 C 3.628906 -10.128906 3.597656 -10.800781 3.578125 -11.4375 C 3.566406 -12.082031 3.566406 -12.644531 3.578125 -13.125 C 3.597656 -13.601562 3.613281 -13.988281 3.625 -14.28125 C 3.644531 -14.570312 3.65625 -14.734375 3.65625 -14.765625 C 3.6875 -15.015625 3.789062 -15.21875 3.96875 -15.375 C 4.144531 -15.539062 4.359375 -15.613281 4.609375 -15.59375 C 4.859375 -15.570312 5.066406 -15.46875 5.234375 -15.28125 C 5.398438 -15.09375 5.46875 -14.875 5.4375 -14.625 C 5.4375 -14.625 5.425781 -14.484375 5.40625 -14.203125 C 5.394531 -13.921875 5.378906 -13.546875 5.359375 -13.078125 C 5.347656 -12.609375 5.347656 -12.066406 5.359375 -11.453125 C 5.378906 -10.847656 5.410156 -10.207031 5.453125 -9.53125 C 5.554688 -7.96875 5.769531 -6.609375 6.09375 -5.453125 C 6.457031 -4.097656 6.941406 -3.117188 7.546875 -2.515625 C 8.035156 -2.015625 8.625 -1.769531 9.3125 -1.78125 C 10.269531 -1.820312 11.109375 -2.429688 11.828125 -3.609375 C 12.492188 -4.703125 13.007812 -6.1875 13.375 -8.0625 C 13.5625 -8.875 13.695312 -9.675781 13.78125 -10.46875 C 13.875 -11.269531 13.941406 -11.976562 13.984375 -12.59375 C 14.023438 -13.21875 14.050781 -13.722656 14.0625 -14.109375 C 14.070312 -14.503906 14.078125 -14.703125 14.078125 -14.703125 C 14.078125 -14.921875 14.144531 -15.113281 14.28125 -15.28125 C 14.425781 -15.457031 14.609375 -15.5625 14.828125 -15.59375 C 15.035156 -15.613281 15.234375 -15.566406 15.421875 -15.453125 C 15.609375 -15.347656 15.738281 -15.191406 15.8125 -14.984375 C 15.820312 -14.941406 15.894531 -14.6875 16.03125 -14.21875 C 16.175781 -13.757812 16.347656 -13.140625 16.546875 -12.359375 C 16.753906 -11.585938 16.960938 -10.679688 17.171875 -9.640625 C 17.390625 -8.597656 17.585938 -7.484375 17.765625 -6.296875 Z M 17.765625 -6.296875 "/></g></g></g><g fill="#000000" fill-opacity="1"><g transform="translate(82.328941, 14.936392)"><g/></g></g><g fill="#1e3c74" fill-opacity="1"><g transform="translate(87.398245, 14.936392)"><g><path d="M 8.96875 -8.53125 C 9.375 -8.226562 9.859375 -7.832031 10.421875 -7.34375 C 10.984375 -6.851562 11.523438 -6.273438 12.046875 -5.609375 C 12.566406 -4.953125 13.007812 -4.222656 13.375 -3.421875 C 13.738281 -2.628906 13.921875 -1.785156 13.921875 -0.890625 C 13.921875 -0.640625 13.832031 -0.425781 13.65625 -0.25 C 13.488281 -0.0820312 13.28125 0 13.03125 0 C 12.769531 0 12.554688 -0.0820312 12.390625 -0.25 C 12.222656 -0.425781 12.140625 -0.640625 12.140625 -0.890625 C 12.140625 -1.347656 12.0625 -1.796875 11.90625 -2.234375 C 11.757812 -2.671875 11.570312 -3.085938 11.34375 -3.484375 C 11.113281 -3.878906 10.851562 -4.25 10.5625 -4.59375 C 10.269531 -4.945312 9.992188 -5.253906 9.734375 -5.515625 C 9.390625 -5.859375 9.0625 -6.160156 8.75 -6.421875 C 8.4375 -6.691406 8.15625 -6.910156 7.90625 -7.078125 C 7.78125 -6.929688 7.664062 -6.785156 7.5625 -6.640625 C 7.46875 -6.503906 7.359375 -6.363281 7.234375 -6.21875 C 6.660156 -5.4375 6.101562 -4.691406 5.5625 -3.984375 C 5.019531 -3.285156 4.539062 -2.671875 4.125 -2.140625 C 3.707031 -1.609375 3.367188 -1.175781 3.109375 -0.84375 C 2.847656 -0.519531 2.71875 -0.347656 2.71875 -0.328125 C 2.519531 -0.109375 2.28125 0 2 0 C 1.894531 0 1.800781 -0.0195312 1.71875 -0.0625 C 1.539062 -0.132812 1.394531 -0.242188 1.28125 -0.390625 C 1.164062 -0.546875 1.109375 -0.71875 1.109375 -0.90625 C 1.109375 -0.925781 1.117188 -1.304688 1.140625 -2.046875 C 1.171875 -2.785156 1.1875 -3.785156 1.1875 -5.046875 C 1.1875 -6.316406 1.171875 -7.773438 1.140625 -9.421875 C 1.117188 -11.078125 1.070312 -12.828125 1 -14.671875 C 0.988281 -14.921875 1.0625 -15.128906 1.21875 -15.296875 C 1.382812 -15.472656 1.59375 -15.570312 1.84375 -15.59375 C 2.101562 -15.601562 2.320312 -15.523438 2.5 -15.359375 C 2.675781 -15.203125 2.769531 -14.992188 2.78125 -14.734375 C 2.875 -12.460938 2.925781 -10.347656 2.9375 -8.390625 C 2.957031 -6.429688 2.957031 -4.804688 2.9375 -3.515625 C 3.425781 -4.140625 3.945312 -4.816406 4.5 -5.546875 C 5.0625 -6.273438 5.625 -7.015625 6.1875 -7.765625 C 6.75 -8.523438 7.296875 -9.269531 7.828125 -10 C 8.367188 -10.738281 8.863281 -11.429688 9.3125 -12.078125 C 9.769531 -12.722656 10.15625 -13.300781 10.46875 -13.8125 C 10.789062 -14.320312 11.019531 -14.734375 11.15625 -15.046875 C 11.257812 -15.285156 11.425781 -15.445312 11.65625 -15.53125 C 11.882812 -15.625 12.109375 -15.617188 12.328125 -15.515625 C 12.554688 -15.410156 12.71875 -15.242188 12.8125 -15.015625 C 12.90625 -14.785156 12.898438 -14.5625 12.796875 -14.34375 C 12.359375 -13.363281 11.082031 -11.425781 8.96875 -8.53125 Z M 8.96875 -8.53125 "/></g></g></g><g fill="#1e3c74" fill-opacity="1"><g transform="translate(102.113302, 14.936392)"><g><path d="M 15.890625 -2.265625 C 15.921875 -2.015625 15.859375 -1.796875 15.703125 -1.609375 C 15.546875 -1.429688 15.34375 -1.328125 15.09375 -1.296875 L 8.265625 -0.6875 C 8.203125 -0.53125 8.097656 -0.398438 7.953125 -0.296875 C 7.816406 -0.191406 7.648438 -0.140625 7.453125 -0.140625 L 7.4375 -0.140625 C 7.09375 -0.140625 6.84375 -0.28125 6.6875 -0.5625 L 1.734375 -0.140625 L 1.640625 -0.140625 C 1.421875 -0.140625 1.222656 -0.210938 1.046875 -0.359375 C 0.878906 -0.503906 0.789062 -0.695312 0.78125 -0.9375 C 0.75 -1.1875 0.8125 -1.398438 0.96875 -1.578125 C 1.125 -1.753906 1.328125 -1.859375 1.578125 -1.890625 L 6.5 -2.34375 C 6.46875 -3.113281 6.445312 -3.914062 6.4375 -4.75 C 6.4375 -5.59375 6.4375 -6.429688 6.4375 -7.265625 C 6.4375 -8.109375 6.4375 -8.929688 6.4375 -9.734375 C 6.4375 -10.535156 6.4375 -11.285156 6.4375 -11.984375 L 6.4375 -13.53125 L 1.78125 -13.25 L 1.734375 -13.25 C 1.492188 -13.25 1.289062 -13.328125 1.125 -13.484375 C 0.957031 -13.648438 0.863281 -13.851562 0.84375 -14.09375 C 0.8125 -14.34375 0.878906 -14.554688 1.046875 -14.734375 C 1.210938 -14.910156 1.421875 -15.007812 1.671875 -15.03125 L 12.875 -15.703125 C 13.125 -15.722656 13.335938 -15.648438 13.515625 -15.484375 C 13.691406 -15.328125 13.789062 -15.125 13.8125 -14.875 C 13.820312 -14.625 13.75 -14.40625 13.59375 -14.21875 C 13.4375 -14.039062 13.234375 -13.945312 12.984375 -13.9375 L 8.21875 -13.65625 L 8.21875 -11.984375 C 8.21875 -11.285156 8.21875 -10.546875 8.21875 -9.765625 C 8.21875 -8.984375 8.21875 -8.179688 8.21875 -7.359375 C 8.21875 -6.535156 8.21875 -5.710938 8.21875 -4.890625 C 8.226562 -4.066406 8.25 -3.269531 8.28125 -2.5 L 14.9375 -3.078125 C 15.1875 -3.109375 15.398438 -3.046875 15.578125 -2.890625 C 15.765625 -2.734375 15.867188 -2.523438 15.890625 -2.265625 Z M 15.890625 -2.265625 "/></g></g></g><g fill="#1e3c74" fill-opacity="1"><g transform="translate(118.520264, 14.936392)"><g><path d="M 14.5 -8.078125 C 14.96875 -6.773438 15.097656 -5.519531 14.890625 -4.3125 C 14.671875 -3.039062 14.09375 -2.019531 13.15625 -1.25 C 12.164062 -0.414062 10.890625 0 9.328125 0 C 9.179688 0 9.035156 0 8.890625 0 C 8.753906 -0.0078125 8.613281 -0.0234375 8.46875 -0.046875 C 7.945312 -0.0859375 7.398438 -0.175781 6.828125 -0.3125 C 6.265625 -0.457031 5.6875 -0.644531 5.09375 -0.875 C 5.082031 -0.632812 4.992188 -0.425781 4.828125 -0.25 C 4.671875 -0.0820312 4.472656 0 4.234375 0 L 4.203125 0 C 3.953125 0 3.738281 -0.078125 3.5625 -0.234375 C 3.394531 -0.398438 3.3125 -0.613281 3.3125 -0.875 L 3.296875 -1.640625 C 2.992188 -1.796875 2.6875 -1.953125 2.375 -2.109375 C 2.070312 -2.273438 1.765625 -2.445312 1.453125 -2.625 C 1.242188 -2.75 1.109375 -2.929688 1.046875 -3.171875 C 0.984375 -3.421875 1.015625 -3.648438 1.140625 -3.859375 C 1.253906 -4.054688 1.429688 -4.1875 1.671875 -4.25 C 1.921875 -4.320312 2.148438 -4.289062 2.359375 -4.15625 C 2.503906 -4.070312 2.648438 -3.988281 2.796875 -3.90625 C 2.953125 -3.820312 3.101562 -3.742188 3.25 -3.671875 L 3.03125 -13.765625 C 2.832031 -13.773438 2.632812 -13.785156 2.4375 -13.796875 C 2.25 -13.804688 2.050781 -13.8125 1.84375 -13.8125 C 1.59375 -13.8125 1.378906 -13.894531 1.203125 -14.0625 C 1.035156 -14.226562 0.953125 -14.441406 0.953125 -14.703125 C 0.953125 -14.953125 1.035156 -15.160156 1.203125 -15.328125 C 1.378906 -15.503906 1.59375 -15.59375 1.84375 -15.59375 C 2.425781 -15.59375 2.984375 -15.566406 3.515625 -15.515625 C 3.617188 -15.566406 3.738281 -15.59375 3.875 -15.59375 C 4.082031 -15.59375 4.269531 -15.53125 4.4375 -15.40625 C 4.800781 -15.34375 5.15625 -15.273438 5.5 -15.203125 C 5.851562 -15.128906 6.203125 -15.050781 6.546875 -14.96875 C 7.941406 -14.550781 9.179688 -13.984375 10.265625 -13.265625 C 11.253906 -12.597656 12.113281 -11.820312 12.84375 -10.9375 C 13.570312 -10.0625 14.125 -9.109375 14.5 -8.078125 Z M 12.03125 -2.609375 C 12.632812 -3.109375 13.003906 -3.789062 13.140625 -4.65625 C 13.285156 -5.53125 13.179688 -6.460938 12.828125 -7.453125 C 12.597656 -8.066406 12.265625 -8.6875 11.828125 -9.3125 C 11.390625 -9.945312 10.84375 -10.535156 10.1875 -11.078125 C 9.53125 -11.628906 8.75 -12.117188 7.84375 -12.546875 C 6.945312 -12.984375 5.9375 -13.3125 4.8125 -13.53125 L 5.046875 -2.8125 C 6.335938 -2.257812 7.523438 -1.921875 8.609375 -1.796875 C 10.054688 -1.671875 11.195312 -1.941406 12.03125 -2.609375 Z M 12.03125 -2.609375 "/></g></g></g><g fill="#1e3c74" fill-opacity="1"><g transform="translate(134.259364, 14.936392)"><g><path d="M 6.921875 0 C 6.148438 0 5.40625 -0.09375 4.6875 -0.28125 C 3.976562 -0.46875 3.34375 -0.726562 2.78125 -1.0625 C 2.082031 -1.476562 1.550781 -1.988281 1.1875 -2.59375 C 0.820312 -3.207031 0.640625 -3.878906 0.640625 -4.609375 C 0.640625 -4.859375 0.722656 -5.066406 0.890625 -5.234375 C 1.066406 -5.410156 1.28125 -5.5 1.53125 -5.5 C 1.789062 -5.5 2.003906 -5.410156 2.171875 -5.234375 C 2.335938 -5.066406 2.421875 -4.859375 2.421875 -4.609375 C 2.421875 -3.773438 2.851562 -3.097656 3.71875 -2.578125 C 4.144531 -2.328125 4.632812 -2.128906 5.1875 -1.984375 C 5.738281 -1.847656 6.316406 -1.78125 6.921875 -1.78125 L 6.953125 -1.78125 C 7.390625 -1.78125 7.832031 -1.820312 8.28125 -1.90625 C 8.726562 -2 9.125 -2.132812 9.46875 -2.3125 C 9.820312 -2.488281 10.109375 -2.710938 10.328125 -2.984375 C 10.554688 -3.265625 10.671875 -3.59375 10.671875 -3.96875 C 10.671875 -4.257812 10.550781 -4.535156 10.3125 -4.796875 C 10.082031 -5.066406 9.78125 -5.320312 9.40625 -5.5625 C 9.03125 -5.8125 8.601562 -6.054688 8.125 -6.296875 C 7.65625 -6.535156 7.175781 -6.765625 6.6875 -6.984375 C 6 -7.285156 5.320312 -7.601562 4.65625 -7.9375 C 4 -8.269531 3.421875 -8.648438 2.921875 -9.078125 C 2.328125 -9.554688 1.914062 -10.09375 1.6875 -10.6875 C 1.425781 -11.382812 1.410156 -12.117188 1.640625 -12.890625 C 1.804688 -13.410156 2.097656 -13.867188 2.515625 -14.265625 C 2.929688 -14.671875 3.453125 -14.984375 4.078125 -15.203125 C 4.597656 -15.398438 5.148438 -15.519531 5.734375 -15.5625 C 6.316406 -15.601562 6.914062 -15.570312 7.53125 -15.46875 C 8.71875 -15.257812 9.695312 -14.816406 10.46875 -14.140625 C 10.914062 -13.734375 11.253906 -13.269531 11.484375 -12.75 C 11.710938 -12.238281 11.8125 -11.6875 11.78125 -11.09375 C 11.757812 -10.832031 11.664062 -10.617188 11.5 -10.453125 C 11.332031 -10.285156 11.117188 -10.207031 10.859375 -10.21875 C 10.609375 -10.21875 10.398438 -10.304688 10.234375 -10.484375 C 10.078125 -10.660156 10 -10.878906 10 -11.140625 C 10.007812 -11.523438 9.929688 -11.863281 9.765625 -12.15625 C 9.609375 -12.457031 9.398438 -12.707031 9.140625 -12.90625 C 8.878906 -13.113281 8.578125 -13.285156 8.234375 -13.421875 C 7.890625 -13.554688 7.550781 -13.65625 7.21875 -13.71875 C 6.8125 -13.789062 6.398438 -13.816406 5.984375 -13.796875 C 5.566406 -13.773438 5.179688 -13.707031 4.828125 -13.59375 C 4.472656 -13.476562 4.160156 -13.316406 3.890625 -13.109375 C 3.628906 -12.898438 3.445312 -12.640625 3.34375 -12.328125 C 3.289062 -12.203125 3.257812 -12.066406 3.25 -11.921875 C 3.238281 -11.785156 3.253906 -11.640625 3.296875 -11.484375 C 3.335938 -11.328125 3.414062 -11.160156 3.53125 -10.984375 C 3.65625 -10.816406 3.835938 -10.632812 4.078125 -10.4375 C 4.472656 -10.101562 4.972656 -9.785156 5.578125 -9.484375 C 6.179688 -9.191406 6.796875 -8.894531 7.421875 -8.59375 C 7.992188 -8.34375 8.5625 -8.078125 9.125 -7.796875 C 9.6875 -7.515625 10.203125 -7.207031 10.671875 -6.875 C 11.234375 -6.476562 11.644531 -6.070312 11.90625 -5.65625 C 12.269531 -5.132812 12.453125 -4.570312 12.453125 -3.96875 C 12.453125 -3.320312 12.289062 -2.734375 11.96875 -2.203125 C 11.644531 -1.679688 11.1875 -1.242188 10.59375 -0.890625 C 10.101562 -0.597656 9.546875 -0.375 8.921875 -0.21875 C 8.304688 -0.0703125 7.648438 0 6.953125 0 Z M 6.921875 0 "/></g></g></g></svg>